<svg xmlns="http://www.w3.org/2000/svg" version="1.1" xmlns:xlink="http://www.w3.org/1999/xlink" xmlns:svgjs="http://svgjs.dev/svgjs" width="1500" height="231" viewBox="0 0 1500 231"><g transform="matrix(1,0,0,1,-0.9090909090909918,-1.2379963286718265)"><svg viewBox="0 0 396 61" data-background-color="#ffffff" preserveAspectRatio="xMidYMid meet" height="231" width="1500" xmlns="http://www.w3.org/2000/svg" xmlns:xlink="http://www.w3.org/1999/xlink"><g id="tight-bounds" transform="matrix(1,0,0,1,0.2400000000000091,0.32691677943282116)"><svg viewBox="0 0 395.52 60.34596032568248" height="60.34596032568248" width="395.52"><g><svg viewBox="0 0 478.2327365923316 72.96575078085408" height="60.34596032568248" width="395.52"><g transform="matrix(1,0,0,1,82.71273659233161,10.853159493649446)"><svg viewBox="0 0 395.52 51.25943179355519" height="51.25943179355519" width="395.52"><g id="textblocktransform"><svg viewBox="0 0 395.52 51.25943179355519" height="51.25943179355519" width="395.52" id="textblock"><g><svg viewBox="0 0 395.52 41.28749136497377" height="41.28749136497377" width="395.52"><g transform="matrix(1,0,0,1,0,0)"><svg width="395.52" viewBox="2.25 -40.25 390.82 40.8" height="41.28749136497377" data-palette-color="#1f55b3"><path d="M37.7 0.5L34.7 0.5 10.95-30.8 10.75-30.8 10.75-9.45Q10.75-6.95 10.93-5.5 11.1-4.05 11.63-3.25 12.15-2.45 13.13-2.2 14.1-1.95 15.7-1.9L15.7-1.9 15.7 0 2.25 0 2.25-1.9Q4-1.95 5.08-2.23 6.15-2.5 6.75-3.25 7.35-4 7.55-5.38 7.75-6.75 7.75-9.1L7.75-9.1 7.75-29.4Q7.75-31.5 7.58-32.88 7.4-34.25 6.88-35.05 6.35-35.85 5.35-36.18 4.35-36.5 2.75-36.6L2.75-36.6 2.75-38.5 12.65-38.5 34.5-9.35 34.7-9.35 34.7-29.05Q34.7-31.5 34.52-32.98 34.35-34.45 33.83-35.25 33.3-36.05 32.33-36.3 31.35-36.55 29.75-36.6L29.75-36.6 29.75-38.5 43.2-38.5 43.2-36.6Q41.45-36.55 40.38-36.27 39.3-36 38.7-35.25 38.1-34.5 37.9-33.1 37.7-31.7 37.7-29.4L37.7-29.4 37.7 0.5ZM68.2-6.05L69.75-4.65Q65.5 0.5 59.2 0.5L59.2 0.5Q56.25 0.5 53.85-0.48 51.45-1.45 49.72-3.23 48-5 47.05-7.48 46.1-9.95 46.1-12.95L46.1-12.95Q46.1-16 47.1-18.6 48.1-21.2 49.92-23.05 51.75-24.9 54.27-25.95 56.8-27 59.8-27L59.8-27Q64.65-27 67.3-24.38 69.95-21.75 69.95-16.85L69.95-16.85Q69.95-16.15 69.67-16 69.4-15.85 68.4-15.85L68.4-15.85 51.95-15.85Q51.85-15.45 51.8-14.88 51.75-14.3 51.75-13.6L51.75-13.6Q51.75-11 52.37-8.88 53-6.75 54.17-5.25 55.35-3.75 56.97-2.93 58.6-2.1 60.6-2.1L60.6-2.1Q62.7-2.1 64.5-3.03 66.3-3.95 68.2-6.05L68.2-6.05ZM52.3-18.15L61.5-18.15Q62.5-18.15 63.1-18.2 63.7-18.25 64-18.4 64.3-18.55 64.4-18.82 64.5-19.1 64.5-19.55L64.5-19.55Q64.5-21.85 63.02-23.23 61.55-24.6 59-24.6L59-24.6Q53.6-24.6 52.3-18.15L52.3-18.15ZM88.2-16.2L91.59-20.6Q92.8-22.1 92.8-23.15L92.8-23.15Q92.8-24.75 89.84-24.75L89.84-24.75 89.84-26.5 100.8-26.5 100.8-24.75Q99.9-24.75 99.17-24.55 98.45-24.35 97.75-23.9 97.05-23.45 96.32-22.68 95.59-21.9 94.7-20.75L94.7-20.75 89.55-14.2 96.2-5.45Q97.75-3.4 99.07-2.58 100.4-1.75 101.9-1.75L101.9-1.75 101.9 0 88.59 0 88.59-1.75Q90.4-1.75 91.09-2.02 91.8-2.3 91.8-3.1L91.8-3.1Q91.8-3.45 91.37-4.13 90.95-4.8 89.95-6.1L89.95-6.1 86.45-10.6 82.2-5.2Q81.45-4.3 81.45-3.4L81.45-3.4Q81.45-2.7 82.05-2.23 82.65-1.75 83.95-1.75L83.95-1.75 83.95 0 72.5 0 72.5-1.75Q73.65-1.75 74.55-1.95 75.45-2.15 76.27-2.65 77.09-3.15 77.97-4.05 78.84-4.95 79.95-6.3L79.95-6.3 85.05-12.55 78.4-22Q77.25-23.6 76.3-24.18 75.34-24.75 73.9-24.75L73.9-24.75 73.9-26.5 86.2-26.5 86.2-24.75Q84.84-24.75 84.25-24.43 83.65-24.1 83.65-23.55L83.65-23.55Q83.65-22.8 84.59-21.45L84.59-21.45 88.2-16.2ZM138.54-11.75L137.94 0 103.24 0 103.24-0.2 129.54-36.4 115.84-36.4Q112.29-36.4 110.54-34.8 108.79-33.2 108.09-29.3L108.09-29.3 106.24-29.3 106.99-38.5 137.44-38.5 137.44-38.3 111.39-2.3 126.89-2.3Q129.44-2.3 131.09-2.68 132.74-3.05 133.77-4.1 134.79-5.15 135.37-6.98 135.94-8.8 136.39-11.75L136.39-11.75 138.54-11.75ZM152.34-27L152.34-7.95Q152.34-6 152.51-4.83 152.69-3.65 153.19-2.98 153.69-2.3 154.59-2.05 155.49-1.8 156.99-1.75L156.99-1.75 156.99 0 142.64 0 142.64-1.75Q144.14-1.8 145.09-2.08 146.04-2.35 146.56-2.98 147.09-3.6 147.26-4.73 147.44-5.85 147.44-7.6L147.44-7.6 147.44-14Q147.44-16.9 147.37-18.78 147.29-20.65 147.09-21.35L147.09-21.35Q146.84-22.5 145.94-22.93 145.04-23.35 142.54-23.35L142.54-23.35 142.54-25.1 152.34-27ZM146.59-37.15L146.59-37.15Q146.59-38.45 147.49-39.35 148.39-40.25 149.69-40.25L149.69-40.25Q150.99-40.25 151.89-39.35 152.79-38.45 152.79-37.15L152.79-37.15Q152.79-35.85 151.89-34.95 150.99-34.05 149.69-34.05L149.69-34.05Q148.39-34.05 147.49-34.95 146.59-35.85 146.59-37.15ZM169.04-14.35L169.04-8Q169.04-5.9 169.14-4.7 169.24-3.5 169.66-2.88 170.09-2.25 170.89-2.05 171.69-1.85 173.14-1.75L173.14-1.75 173.14 0 159.84 0 159.84-1.75Q161.29-1.85 162.14-2.05 162.99-2.25 163.44-2.85 163.89-3.45 164.01-4.58 164.14-5.7 164.14-7.6L164.14-7.6 164.14-14Q164.14-16.85 164.06-18.75 163.99-20.65 163.79-21.35L163.79-21.35Q163.64-22 163.44-22.38 163.24-22.75 162.79-22.98 162.34-23.2 161.61-23.28 160.89-23.35 159.74-23.35L159.74-23.35 159.74-25.1 167.89-27 168.54-22 168.79-22Q171.04-24.55 173.51-25.78 175.99-27 178.99-27L178.99-27Q182.14-27 184.29-25.73 186.44-24.45 187.29-22.05L187.29-22.05 187.49-22.05Q189.34-24.4 191.99-25.7 194.64-27 197.64-27L197.64-27Q199.99-27 201.91-26.23 203.84-25.45 204.84-24.1L204.84-24.1Q205.74-22.95 206.11-21.08 206.49-19.2 206.49-15.95L206.49-15.95 206.49-8Q206.49-5.95 206.61-4.75 206.74-3.55 207.14-2.9 207.54-2.25 208.36-2.05 209.19-1.85 210.64-1.75L210.64-1.75 210.64 0 197.34 0 197.34-1.75Q198.74-1.8 199.59-2.02 200.44-2.25 200.89-2.88 201.34-3.5 201.46-4.6 201.59-5.7 201.59-7.6L201.59-7.6 201.59-13.9Q201.59-16.75 201.29-18.73 200.99-20.7 200.29-21.93 199.59-23.15 198.46-23.7 197.34-24.25 195.74-24.25L195.74-24.25Q193.54-24.25 191.61-23.03 189.69-21.8 188.59-19.75L188.59-19.75Q188.34-19.25 188.16-18.78 187.99-18.3 187.89-17.73 187.79-17.15 187.76-16.35 187.74-15.55 187.74-14.35L187.74-14.35 187.74-8Q187.74-5.95 187.84-4.75 187.94-3.55 188.36-2.9 188.79-2.25 189.64-2.05 190.49-1.85 191.94-1.75L191.94-1.75 191.94 0 178.64 0 178.64-1.75Q180.04-1.85 180.89-2.05 181.74-2.25 182.16-2.85 182.59-3.45 182.71-4.58 182.84-5.7 182.84-7.6L182.84-7.6 182.84-13.9Q182.84-16.8 182.54-18.78 182.24-20.75 181.56-21.98 180.89-23.2 179.79-23.73 178.69-24.25 177.09-24.25L177.09-24.25Q174.84-24.25 172.86-23.03 170.89-21.8 169.89-19.75L169.89-19.75Q169.64-19.25 169.46-18.78 169.29-18.3 169.19-17.73 169.09-17.15 169.06-16.35 169.04-15.55 169.04-14.35L169.04-14.35ZM238.98-35.5L238.98-21.15Q241.68-21.15 243.51-21.48 245.33-21.8 246.41-22.5 247.48-23.2 247.96-24.3 248.43-25.4 248.43-26.9L248.43-26.9 250.18-26.9 250.18-13.25 248.43-13.25Q248.43-14.75 248.01-15.85 247.58-16.95 246.51-17.68 245.43-18.4 243.61-18.78 241.78-19.15 238.98-19.15L238.98-19.15 238.98-7.85Q238.98-6.2 239.38-5.13 239.78-4.05 240.76-3.38 241.73-2.7 243.33-2.43 244.93-2.15 247.28-2.15L247.28-2.15Q249.93-2.15 251.78-2.53 253.63-2.9 254.88-3.8 256.13-4.7 256.88-6.18 257.63-7.65 258.13-9.85L258.13-9.85 260.03-9.85 259.28 0 228.23 0 228.23-1.9Q229.98-1.95 231.06-2.2 232.13-2.45 232.73-3.05 233.33-3.65 233.53-4.75 233.73-5.85 233.73-7.6L233.73-7.6 233.73-30.9Q233.73-32.65 233.56-33.73 233.38-34.8 232.86-35.43 232.33-36.05 231.33-36.27 230.33-36.5 228.73-36.6L228.73-36.6 228.73-38.5 257.63-38.5 258.08-29.7 256.33-29.7Q256.03-31.7 255.36-32.98 254.68-34.25 253.51-35 252.33-35.75 250.53-36.05 248.73-36.35 246.18-36.35L246.18-36.35 239.83-36.35Q238.98-36.35 238.98-35.5L238.98-35.5ZM274.98 0.55L266.53-20.3Q265.93-21.8 265.46-22.68 264.98-23.55 264.43-24 263.88-24.45 263.21-24.58 262.53-24.7 261.58-24.75L261.58-24.75 261.58-26.5 274.83-26.5 274.83-24.75Q273.83-24.7 273.18-24.65 272.53-24.6 272.16-24.43 271.78-24.25 271.63-23.93 271.48-23.6 271.48-23L271.48-23Q271.48-22.15 271.71-21.4 271.93-20.65 272.18-19.9L272.18-19.9 277.48-5.4 277.68-5.4 282.23-16.15Q283.28-18.65 283.73-20.15 284.18-21.65 284.18-22.8L284.18-22.8Q284.18-23.95 283.58-24.35 282.98-24.75 280.98-24.75L280.98-24.75 280.98-26.5 290.93-26.5 290.93-24.75Q290.13-24.75 289.48-24.35 288.83-23.95 288.33-23.35L288.33-23.35Q287.93-22.8 287.51-21.88 287.08-20.95 286.66-19.95 286.23-18.95 285.88-17.98 285.53-17 285.23-16.4L285.23-16.4 277.88 0.55 274.98 0.55ZM315.28-6.05L316.83-4.65Q312.58 0.5 306.28 0.5L306.28 0.5Q303.33 0.5 300.93-0.48 298.53-1.45 296.8-3.23 295.08-5 294.13-7.48 293.18-9.95 293.18-12.95L293.18-12.95Q293.18-16 294.18-18.6 295.18-21.2 297-23.05 298.83-24.9 301.35-25.95 303.88-27 306.88-27L306.88-27Q311.73-27 314.38-24.38 317.03-21.75 317.03-16.85L317.03-16.85Q317.03-16.15 316.75-16 316.48-15.85 315.48-15.85L315.48-15.85 299.03-15.85Q298.93-15.45 298.88-14.88 298.83-14.3 298.83-13.6L298.83-13.6Q298.83-11 299.45-8.88 300.08-6.75 301.25-5.25 302.43-3.75 304.05-2.93 305.68-2.1 307.68-2.1L307.68-2.1Q309.78-2.1 311.58-3.03 313.38-3.95 315.28-6.05L315.28-6.05ZM299.38-18.15L308.58-18.15Q309.58-18.15 310.18-18.2 310.78-18.25 311.08-18.4 311.38-18.55 311.48-18.82 311.58-19.1 311.58-19.55L311.58-19.55Q311.58-21.85 310.1-23.23 308.63-24.6 306.08-24.6L306.08-24.6Q300.68-24.6 299.38-18.15L299.38-18.15ZM330.18-14.55L330.18-7.85Q330.18-5.8 330.27-4.63 330.38-3.45 330.8-2.83 331.23-2.2 332.05-2 332.88-1.8 334.32-1.7L334.32-1.7 334.32 0 321.23 0 321.23-1.7Q322.63-1.8 323.45-2 324.27-2.2 324.73-2.8 325.18-3.4 325.3-4.5 325.43-5.6 325.43-7.5L325.43-7.5 325.43-14.15Q325.43-20.1 325.13-21.4L325.13-21.4Q324.98-22.05 324.75-22.48 324.52-22.9 324.07-23.13 323.63-23.35 322.93-23.43 322.23-23.5 321.13-23.5L321.13-23.5 321.13-25.1 329.13-27 329.73-22.05 329.93-22.05Q331.82-24.4 334.38-25.7 336.93-27 339.93-27L339.93-27Q342.23-27 344.13-26.25 346.02-25.5 347.02-24.2L347.02-24.2Q347.88-23.05 348.23-21.23 348.57-19.4 348.57-16.2L348.57-16.2 348.57-7.85Q348.57-5.8 348.7-4.63 348.82-3.45 349.23-2.83 349.63-2.2 350.45-2 351.27-1.8 352.63-1.7L352.63-1.7 352.63 0 339.68 0 339.68-1.7Q341.07-1.75 341.9-1.98 342.73-2.2 343.15-2.8 343.57-3.4 343.7-4.53 343.82-5.65 343.82-7.5L343.82-7.5 343.82-14.1Q343.82-16.95 343.52-18.9 343.23-20.85 342.55-22.05 341.88-23.25 340.77-23.78 339.68-24.3 338.13-24.3L338.13-24.3Q335.88-24.3 334-23.13 332.13-21.95 331.07-19.9L331.07-19.9Q330.82-19.4 330.65-18.95 330.48-18.5 330.38-17.9 330.27-17.3 330.23-16.53 330.18-15.75 330.18-14.55L330.18-14.55ZM358.82-23.35L355.82-23.35 355.82-25.2Q358.47-26.75 359.97-28.3 361.47-29.85 362.27-32L362.27-32 363.72-32 363.72-25.7 370.42-25.7 370.42-23.35 363.72-23.35 363.72-8.15Q363.72-6.4 363.9-5.2 364.07-4 364.47-3.28 364.87-2.55 365.52-2.25 366.17-1.95 367.17-1.95L367.17-1.95Q368.42-1.95 369.3-2.48 370.17-3 371.02-4.25L371.02-4.25 372.27-3.3Q371.57-1.45 369.85-0.48 368.12 0.5 365.57 0.5L365.57 0.5Q362.27 0.5 360.55-1.07 358.82-2.65 358.82-5.6L358.82-5.6 358.82-23.35ZM378.02-1.75L377.02 0 375.92 0 375.92-8.6 377.17-8.6Q379.12-1.55 384.27-1.55L384.27-1.55Q386.27-1.55 387.44-2.53 388.62-3.5 388.62-5.5L388.62-5.5Q388.62-6.25 388.39-6.78 388.17-7.3 387.54-7.88 386.92-8.45 385.79-9.2 384.67-9.95 382.82-11.1L382.82-11.1Q381.12-12.15 379.87-13.05 378.62-13.95 377.77-14.88 376.92-15.8 376.49-16.85 376.07-17.9 376.07-19.3L376.07-19.3Q376.07-21 376.64-22.43 377.22-23.85 378.22-24.85 379.22-25.85 380.57-26.43 381.92-27 383.52-27L383.52-27Q384.87-27 386.32-26.58 387.77-26.15 388.87-25.45L388.87-25.45 389.87-26.5 390.82-26.5 390.82-19.3 389.52-19.3Q388.42-22.35 387.12-23.65 385.82-24.95 383.92-24.95L383.92-24.95Q382.22-24.95 381.19-24.05 380.17-23.15 380.17-21.55L380.17-21.55Q380.17-20.7 380.44-20.08 380.72-19.45 381.32-18.85 381.92-18.25 382.84-17.63 383.77-17 385.07-16.2L385.07-16.2Q387.22-14.85 388.74-13.8 390.27-12.75 391.22-11.73 392.17-10.7 392.62-9.6 393.07-8.5 393.07-7.1L393.07-7.1Q393.07-3.55 390.77-1.53 388.47 0.5 384.72 0.5L384.72 0.5Q380.82 0.5 378.02-1.75L378.02-1.75Z" opacity="1" transform="matrix(1,0,0,1,0,0)" fill="#1f55b3" class="wordmark-text-0" data-fill-palette-color="primary" id="text-0"></path></svg></g></svg></g><g transform="matrix(1,0,0,1,195.7824,51.03447717645132)"><svg viewBox="0 0 3.9552 0.22495461710387016" height="0.22495461710387016" width="3.9552"><g transform="matrix(1,0,0,1,0,0)"><svg width="3.9552" viewBox="2.6 -36.05 850 48.349999999999994" height="0.22495461710387016" data-palette-color="#ff585f"><path d="M26.3-3.4Q24.85-1.8 22.73-0.85 20.6 0.1 18.35 0.1L18.35 0.1Q13.1 0.1 10.25-4.42 7.4-8.95 7.4-17.25L7.4-17.25Q7.4-25.6 10.25-30.15 13.1-34.7 18.4-34.7L18.4-34.7Q21.3-34.7 23.7-33.38 26.1-32.05 27.6-29.6L27.6-29.6Q29.1-27.1 29.8-23.25L29.8-23.25 30.5-23.45 30-34.7 29.35-34.7 28.15-32.3Q25.25-33.85 22.88-34.58 20.5-35.3 18.25-35.3L18.25-35.3Q13.95-35.3 10.35-32.9 6.75-30.5 4.67-26.35 2.6-22.2 2.6-17.25L2.6-17.25Q2.6-12.25 4.67-8.13 6.75-4 10.38-1.6 14 0.8 18.35 0.8L18.35 0.8Q20.8 0.8 23.43-0.15 26.05-1.1 28.3-2.75L28.3-2.75 30 0 30.65 0 30.65-11.5 30-11.6Q28.75-6.15 26.3-3.4L26.3-3.4ZM45.25-21.7Q48.15-21.7 50.4-20.3 52.65-18.9 53.9-16.38 55.15-13.85 55.15-10.6L55.15-10.6Q55.15-7.35 53.9-4.83 52.65-2.3 50.4-0.9 48.15 0.5 45.25 0.5L45.25 0.5Q42.35 0.5 40.1-0.9 37.85-2.3 36.6-4.83 35.35-7.35 35.35-10.6L35.35-10.6Q35.35-13.85 36.6-16.38 37.85-18.9 40.1-20.3 42.35-21.7 45.25-21.7L45.25-21.7ZM39.05-10.6Q39.05-5.6 40.7-2.8 42.35 0 45.25 0L45.25 0Q48.15 0 49.8-2.8 51.45-5.6 51.45-10.6L51.45-10.6Q51.45-15.6 49.8-18.4 48.15-21.2 45.25-21.2L45.25-21.2Q42.35-21.2 40.7-18.4 39.05-15.6 39.05-10.6L39.05-10.6ZM76.45-0.8L79.45-0.4 79.45 0 70.15 0 70.15-0.4 73.2-0.8 73.2-13.55Q73.2-15.5 73.1-16.45 73-17.4 72.7-18.05L72.7-18.05Q72.3-18.9 71.37-19.38 70.45-19.85 69.25-19.85L69.25-19.85Q66.7-19.85 64.7-17.7L64.7-17.7 64.7-0.8 67.75-0.4 67.75 0 58.4 0 58.4-0.4 61.45-0.8 61.45-18.05 58.5-19.15 58.5-19.5 64.15-21.45 64.55-21.45 64.55-18.3Q67.75-21.7 71.25-21.7L71.25-21.7Q72.8-21.7 74.07-21.03 75.35-20.35 75.9-19.25L75.9-19.25Q76.25-18.6 76.35-17.48 76.45-16.35 76.45-13.55L76.45-13.55 76.45-0.8ZM99.54-0.8L102.54-0.4 102.54 0 93.24 0 93.24-0.4 96.29-0.8 96.29-13.55Q96.29-15.5 96.19-16.45 96.09-17.4 95.79-18.05L95.79-18.05Q95.39-18.9 94.47-19.38 93.54-19.85 92.34-19.85L92.34-19.85Q89.79-19.85 87.79-17.7L87.79-17.7 87.79-0.8 90.84-0.4 90.84 0 81.49 0 81.49-0.4 84.54-0.8 84.54-18.05 81.59-19.15 81.59-19.5 87.24-21.45 87.64-21.45 87.64-18.3Q90.84-21.7 94.34-21.7L94.34-21.7Q95.89-21.7 97.17-21.03 98.44-20.35 98.99-19.25L98.99-19.25Q99.34-18.6 99.44-17.48 99.54-16.35 99.54-13.55L99.54-13.55 99.54-0.8ZM121.84-5.1L122.29-5.7 122.49-5.6 122.29-5.05Q121.29-2.4 119.31-0.95 117.34 0.5 114.59 0.5L114.59 0.5Q111.89 0.5 109.79-0.9 107.69-2.3 106.52-4.8 105.34-7.3 105.34-10.55L105.34-10.55Q105.34-13.8 106.59-16.35 107.84-18.9 110.14-20.3 112.44-21.7 115.39-21.7L115.39-21.7Q118.89-21.7 120.77-19.63 122.64-17.55 122.69-13.6L122.69-13.6 122.39-13.35 108.89-13.35Q108.79-12.05 108.79-11.3L108.79-11.3Q108.79-6.75 110.64-4.38 112.49-2 115.79-2L115.79-2Q117.49-2 119.06-2.78 120.64-3.55 121.84-5.1L121.84-5.1ZM114.84-21.15Q112.49-21.15 110.94-19.2 109.39-17.25 108.94-13.9L108.94-13.9 118.64-14.25Q118.79-14.85 118.79-16.25L118.79-16.25Q118.79-18.95 117.77-20.05 116.74-21.15 114.84-21.15L114.84-21.15ZM136.39-21.7Q133.54-21.7 131.29-20.25 129.04-18.8 127.76-16.2 126.49-13.6 126.49-10.35L126.49-10.35Q126.49-7.2 127.66-4.73 128.84-2.25 130.91-0.88 132.99 0.5 135.64 0.5L135.64 0.5Q138.39 0.5 140.41-0.95 142.44-2.4 143.44-5.05L143.44-5.05 143.64-5.6 143.44-5.7 142.99-5.1Q141.74-3.5 140.26-2.73 138.79-1.95 136.94-1.95L136.94-1.95Q133.54-1.95 131.69-4.35 129.84-6.75 129.84-11.1L129.84-11.1Q129.84-14 130.66-16.3 131.49-18.6 132.94-19.9 134.39-21.2 136.19-21.2L136.19-21.2Q137.69-21.2 138.24-20.4 138.79-19.6 139.14-18.05L139.14-18.05Q139.44-16.7 139.81-16.07 140.19-15.45 141.19-15.45L141.19-15.45Q142.04-15.45 142.54-15.98 143.04-16.5 143.04-17.35L143.04-17.35Q143.04-19.2 141.11-20.45 139.19-21.7 136.39-21.7L136.39-21.7ZM151.49-26L145.99-20.7 146.09-20.45 148.44-20.45 148.44-4.45Q148.44-2.9 148.79-1.95 149.14-1 149.99-0.4L149.99-0.4Q151.24 0.5 152.84 0.5L152.84 0.5Q154.39 0.5 155.76-0.4 157.14-1.3 157.89-2.85L157.89-2.85 157.69-3Q156.79-2.1 156.04-1.7 155.29-1.3 154.49-1.3L154.49-1.3Q152.84-1.3 152.24-2.5L152.24-2.5Q151.69-3.35 151.69-5.1L151.69-5.1 151.69-20.4 157.09-20.4 157.39-21.2 151.69-21.2 151.69-25.95 151.49-26ZM161.43-28.9Q161.43-29.95 162.11-30.63 162.78-31.3 163.83-31.3L163.83-31.3Q164.88-31.3 165.56-30.63 166.23-29.95 166.23-28.9L166.23-28.9Q166.23-27.85 165.56-27.18 164.88-26.5 163.83-26.5L163.83-26.5Q162.78-26.5 162.11-27.18 161.43-27.85 161.43-28.9L161.43-28.9ZM165.73-0.8L165.73-21.7 165.33-21.7 159.53-19.75 159.53-19.4 162.48-18.3 162.48-0.8 159.43-0.4 159.43 0 168.78 0 168.78-0.4 165.73-0.8ZM188.93-0.8L191.93-0.4 191.93 0 182.63 0 182.63-0.4 185.68-0.8 185.68-13.55Q185.68-15.5 185.58-16.45 185.48-17.4 185.18-18.05L185.18-18.05Q184.78-18.9 183.86-19.38 182.93-19.85 181.73-19.85L181.73-19.85Q179.18-19.85 177.18-17.7L177.18-17.7 177.18-0.8 180.23-0.4 180.23 0 170.88 0 170.88-0.4 173.93-0.8 173.93-18.05 170.98-19.15 170.98-19.5 176.63-21.45 177.03-21.45 177.03-18.3Q180.23-21.7 183.73-21.7L183.73-21.7Q185.28-21.7 186.56-21.03 187.83-20.35 188.38-19.25L188.38-19.25Q188.73-18.6 188.83-17.48 188.93-16.35 188.93-13.55L188.93-13.55 188.93-0.8ZM209.63-22.05Q208.63-22.05 208.18-20L208.18-20Q209.48-19 210.18-17.57 210.88-16.15 210.88-14.4L210.88-14.4Q210.88-11.7 209.25-9.78 207.63-7.85 204.93-7.3L204.93-7.3Q204.33-7.15 203.73-7.15L203.73-7.15Q201.13-6.7 199.7-5.9 198.28-5.1 198.28-4.1L198.28-4.1Q198.28-3.4 198.73-2.93 199.18-2.45 200.43-2.02 201.68-1.6 204.18-1.15L204.18-1.15Q208.43-0.35 210.23 1.1 212.03 2.55 212.03 5.2L212.03 5.2Q212.03 7.2 210.73 8.83 209.43 10.45 207.13 11.38 204.83 12.3 201.98 12.3L201.98 12.3Q197.83 12.3 195.55 10.83 193.28 9.35 193.28 6.7L193.28 6.7Q193.28 4.85 194.75 3.28 196.23 1.7 198.73 0.9L198.73 0.9Q196.98 0.2 196.2-0.68 195.43-1.55 195.43-2.75L195.43-2.75Q195.43-4.15 197.1-5.3 198.78-6.45 201.93-7.15L201.93-7.15Q198.83-7.45 196.9-9.45 194.98-11.45 194.98-14.45L194.98-14.45Q194.98-17.65 197.2-19.68 199.43-21.7 202.93-21.7L202.93-21.7Q205.73-21.7 207.78-20.35L207.78-20.35Q209.03-24.65 211.63-24.65L211.63-24.65Q212.58-24.65 213.13-24.13 213.68-23.6 213.68-22.75L213.68-22.75Q213.68-22.05 213.18-21.55 212.68-21.05 211.98-21.05L211.98-21.05Q211.38-21.05 210.73-21.6L210.73-21.6Q210.63-21.65 210.3-21.85 209.98-22.05 209.63-22.05L209.63-22.05ZM202.93-7.6Q204.83-7.6 206-9.5 207.18-11.4 207.18-14.4L207.18-14.4Q207.18-17.4 206-19.3 204.83-21.2 202.93-21.2L202.93-21.2Q201.03-21.2 199.85-19.3 198.68-17.4 198.68-14.4L198.68-14.4Q198.68-11.4 199.85-9.5 201.03-7.6 202.93-7.6L202.93-7.6ZM209.13 6.7Q209.13 4.8 207.78 3.78 206.43 2.75 202.68 2L202.68 2Q200.58 1.65 199.23 1.1L199.23 1.1Q195.68 2.35 195.68 6.25L195.68 6.25Q195.68 8.9 197.4 10.35 199.13 11.8 202.28 11.8L202.28 11.8Q205.43 11.8 207.28 10.43 209.13 9.05 209.13 6.7L209.13 6.7ZM247.07-33.7L226.62-0.4 226.62 0 250.07 0 251.92-10.75 251.22-10.85 247.62-2.45Q247.12-1.35 246.57-0.98 246.02-0.6 244.82-0.6L244.82-0.6 231.12-0.6 231.12-0.8 251.57-34.1 251.57-34.5 229.67-34.5 227.62-24.65 228.32-24.55 232.12-32.1Q232.62-33.2 233.22-33.55 233.82-33.9 235.02-33.9L235.02-33.9 247.07-33.9 247.07-33.7ZM257.07-28.9Q257.07-29.95 257.75-30.63 258.42-31.3 259.47-31.3L259.47-31.3Q260.52-31.3 261.2-30.63 261.87-29.95 261.87-28.9L261.87-28.9Q261.87-27.85 261.2-27.18 260.52-26.5 259.47-26.5L259.47-26.5Q258.42-26.5 257.75-27.18 257.07-27.85 257.07-28.9L257.07-28.9ZM261.37-0.8L261.37-21.7 260.97-21.7 255.17-19.75 255.17-19.4 258.12-18.3 258.12-0.8 255.07-0.4 255.07 0 264.42 0 264.42-0.4 261.37-0.8ZM294.12-0.8L297.22-0.4 297.22 0 287.82 0 287.82-0.4 290.87-0.8 290.87-13.55Q290.87-15.5 290.77-16.45 290.67-17.4 290.42-18.05L290.42-18.05Q289.67-19.85 287.42-19.85L287.42-19.85Q285.02-19.85 283.37-17.65L283.37-17.65Q283.47-15.95 283.47-13.55L283.47-13.55 283.47-0.8 286.57-0.4 286.57 0 277.12 0 277.12-0.4 280.22-0.8 280.22-13.55Q280.22-15.5 280.12-16.45 280.02-17.4 279.77-18.05L279.77-18.05Q279.02-19.85 276.77-19.85L276.77-19.85Q274.42-19.85 272.82-17.8L272.82-17.8 272.82-0.8 275.87-0.4 275.87 0 266.57 0 266.57-0.4 269.57-0.8 269.57-18.3 266.62-19.4 266.62-19.75 272.27-21.7 272.67-21.7 272.67-18.35Q275.62-21.7 278.82-21.7L278.82-21.7Q281.72-21.7 282.92-19.25L282.92-19.25Q283.12-18.85 283.27-18.25L283.27-18.25Q286.32-21.7 289.47-21.7L289.47-21.7Q292.37-21.7 293.57-19.25L293.57-19.25Q293.92-18.6 294.02-17.43 294.12-16.25 294.12-13.55L294.12-13.55 294.12-0.8ZM309.17 0.5Q312.02 0.5 314.32-1.05 316.62-2.6 317.92-5.3 319.22-8 319.22-11.4L319.22-11.4Q319.22-14.45 318.17-16.78 317.12-19.1 315.22-20.4 313.32-21.7 310.87-21.7L310.87-21.7Q307.37-21.7 304.72-18.85L304.72-18.85 304.72-36.05 304.32-36.05 298.52-34.1 298.52-33.75 301.47-32.65 301.47 0 301.87 0 303.37-1.35 303.57-1.35Q306.02 0.5 309.17 0.5L309.17 0.5ZM309.12 0Q307.12 0 305.92-1.38 304.72-2.75 304.72-5.05L304.72-5.05 304.72-18.1Q305.47-19.1 306.64-19.65 307.82-20.2 309.17-20.2L309.17-20.2Q312.12-20.2 313.79-17.55 315.47-14.9 315.47-10.35L315.47-10.35Q315.47-5.65 313.74-2.83 312.02 0 309.12 0L309.12 0ZM327.71 0.35Q325.81 0.35 324.59-0.98 323.36-2.3 323.36-4.4L323.36-4.4Q323.36-6.9 325.64-8.4 327.91-9.9 333.36-11L333.36-11 333.36-15.55Q333.36-18.45 332.71-19.58 332.06-20.7 330.46-20.7L330.46-20.7Q328.91-20.7 327.96-19.88 327.01-19.05 327.01-17.65L327.01-17.65 327.06-16.3Q327.06-15.05 326.59-14.33 326.11-13.6 325.26-13.6L325.26-13.6Q324.51-13.6 324.04-14.1 323.56-14.6 323.56-15.4L323.56-15.4Q323.56-16.6 324.74-18.03 325.91-19.45 327.76-20.4L327.76-20.4Q330.01-21.65 332.41-21.65L332.41-21.65Q333.81-21.65 334.79-21.1 335.76-20.55 336.21-19.55L336.21-19.55Q336.46-18.9 336.54-17.95 336.61-17 336.61-14.3L336.61-14.3 336.61-4.75Q336.61-2.95 336.96-2.27 337.31-1.6 338.21-1.6L338.21-1.6Q339.56-1.6 340.21-2.55L340.21-2.55 340.41-2.45Q339.81-1.2 338.81-0.53 337.81 0.15 336.66 0.15L336.66 0.15Q335.36 0.15 334.51-0.63 333.66-1.4 333.56-2.7L333.56-2.7 333.41-2.75Q332.26-1.3 330.76-0.48 329.26 0.35 327.71 0.35L327.71 0.35ZM329.86-1.55Q330.91-1.55 331.84-2.02 332.76-2.5 333.36-3.4L333.36-3.4 333.36-10.45Q330.76-9.8 329.34-9.15 327.91-8.5 327.31-7.6 326.71-6.7 326.71-5.35L326.71-5.35Q326.71-3.6 327.56-2.58 328.41-1.55 329.86-1.55L329.86-1.55ZM352.06 0.5Q354.91 0.5 357.21-1.05 359.51-2.6 360.81-5.3 362.11-8 362.11-11.4L362.11-11.4Q362.11-14.45 361.06-16.78 360.01-19.1 358.11-20.4 356.21-21.7 353.76-21.7L353.76-21.7Q350.26-21.7 347.61-18.85L347.61-18.85 347.61-36.05 347.21-36.05 341.41-34.1 341.41-33.75 344.36-32.65 344.36 0 344.76 0 346.26-1.35 346.46-1.35Q348.91 0.5 352.06 0.5L352.06 0.5ZM352.01 0Q350.01 0 348.81-1.38 347.61-2.75 347.61-5.05L347.61-5.05 347.61-18.1Q348.36-19.1 349.54-19.65 350.71-20.2 352.06-20.2L352.06-20.2Q355.01-20.2 356.69-17.55 358.36-14.9 358.36-10.35L358.36-10.35Q358.36-5.65 356.64-2.83 354.91 0 352.01 0L352.01 0ZM386.81-21.2L394.86-21.2 394.86-20.8Q392.66-20.45 391.76-19.78 390.86-19.1 390.31-17.35L390.31-17.35 384.61 0.15 384.06 0.15 378.86-15.1 373.86 0.15 373.31 0.15 366.56-19.1Q366.36-19.75 366.11-20.05 365.86-20.35 365.33-20.5 364.81-20.65 363.56-20.8L363.56-20.8 363.56-21.2 372.51-21.2 372.51-20.8Q371.01-20.7 370.53-20.48 370.06-20.25 370.06-19.8L370.06-19.8Q370.06-19.45 370.36-18.6L370.36-18.6 374.71-5.3 374.91-5.3 378.46-16.2 377.56-18.85Q377.21-19.8 376.68-20.23 376.16-20.65 374.81-20.8L374.81-20.8 374.81-21.2 383.26-21.2 383.26-20.8Q381.76-20.7 381.28-20.48 380.81-20.25 380.81-19.8L380.81-19.8Q380.81-19.45 381.11-18.6L381.11-18.6 385.51-5.3 385.71-5.3 389.56-17.4Q389.86-18.4 389.86-18.95L389.86-18.95Q389.86-19.75 389.21-20.13 388.56-20.5 386.81-20.8L386.81-20.8 386.81-21.2ZM411.91-5.1L412.36-5.7 412.56-5.6 412.36-5.05Q411.36-2.4 409.38-0.95 407.41 0.5 404.66 0.5L404.66 0.5Q401.96 0.5 399.86-0.9 397.76-2.3 396.58-4.8 395.41-7.3 395.41-10.55L395.41-10.55Q395.41-13.8 396.66-16.35 397.91-18.9 400.21-20.3 402.51-21.7 405.46-21.7L405.46-21.7Q408.96-21.7 410.83-19.63 412.71-17.55 412.76-13.6L412.76-13.6 412.46-13.35 398.96-13.35Q398.86-12.05 398.86-11.3L398.86-11.3Q398.86-6.75 400.71-4.38 402.56-2 405.86-2L405.86-2Q407.56-2 409.13-2.78 410.71-3.55 411.91-5.1L411.91-5.1ZM404.91-21.15Q402.56-21.15 401.01-19.2 399.46-17.25 399.01-13.9L399.01-13.9 408.71-14.25Q408.86-14.85 408.86-16.25L408.86-16.25Q408.86-18.95 407.83-20.05 406.81-21.15 404.91-21.15L404.91-21.15ZM418.2 7.8Q419.3 6.75 420 5.3 420.7 3.85 420.7 2.6L420.7 2.6Q420.7 1.6 420.33 1.05 419.95 0.5 419.15-0.1L419.15-0.1Q418.4-0.75 418.08-1.18 417.75-1.6 417.75-2.4L417.75-2.4Q417.75-3.5 418.43-4.23 419.1-4.95 420.1-4.95L420.1-4.95Q421.45-4.95 422.28-3.93 423.1-2.9 423.1-1L423.1-1Q423.1 1.65 421.9 3.95 420.7 6.25 418.4 8.05L418.4 8.05 418.2 7.8ZM440.25-34.1L440.25-34.5 452.3-34.5 452.3-34.1 448.2-33.7 448.2-0.8 452.3-0.4 452.3 0 440.25 0 440.25-0.4 444.35-0.8 444.35-33.7 440.25-34.1ZM473.3-0.8L476.3-0.4 476.3 0 467 0 467-0.4 470.05-0.8 470.05-13.55Q470.05-15.5 469.95-16.45 469.85-17.4 469.55-18.05L469.55-18.05Q469.15-18.9 468.22-19.38 467.3-19.85 466.1-19.85L466.1-19.85Q463.55-19.85 461.55-17.7L461.55-17.7 461.55-0.8 464.6-0.4 464.6 0 455.25 0 455.25-0.4 458.3-0.8 458.3-18.05 455.35-19.15 455.35-19.5 461-21.45 461.4-21.45 461.4-18.3Q464.6-21.7 468.1-21.7L468.1-21.7Q469.65-21.7 470.92-21.03 472.2-20.35 472.75-19.25L472.75-19.25Q473.1-18.6 473.2-17.48 473.3-16.35 473.3-13.55L473.3-13.55 473.3-0.8ZM496.39-0.8L499.39-0.4 499.39 0 490.09 0 490.09-0.4 493.14-0.8 493.14-13.55Q493.14-15.5 493.04-16.45 492.94-17.4 492.64-18.05L492.64-18.05Q492.24-18.9 491.32-19.38 490.39-19.85 489.19-19.85L489.19-19.85Q486.64-19.85 484.64-17.7L484.64-17.7 484.64-0.8 487.69-0.4 487.69 0 478.34 0 478.34-0.4 481.39-0.8 481.39-18.05 478.44-19.15 478.44-19.5 484.09-21.45 484.49-21.45 484.49-18.3Q487.69-21.7 491.19-21.7L491.19-21.7Q492.74-21.7 494.02-21.03 495.29-20.35 495.84-19.25L495.84-19.25Q496.19-18.6 496.29-17.48 496.39-16.35 496.39-13.55L496.39-13.55 496.39-0.8ZM512.09-21.7Q514.99-21.7 517.24-20.3 519.49-18.9 520.74-16.38 521.99-13.85 521.99-10.6L521.99-10.6Q521.99-7.35 520.74-4.83 519.49-2.3 517.24-0.9 514.99 0.5 512.09 0.5L512.09 0.5Q509.19 0.5 506.94-0.9 504.69-2.3 503.44-4.83 502.19-7.35 502.19-10.6L502.19-10.6Q502.19-13.85 503.44-16.38 504.69-18.9 506.94-20.3 509.19-21.7 512.09-21.7L512.09-21.7ZM505.89-10.6Q505.89-5.6 507.54-2.8 509.19 0 512.09 0L512.09 0Q514.99 0 516.64-2.8 518.29-5.6 518.29-10.6L518.29-10.6Q518.29-15.6 516.64-18.4 514.99-21.2 512.09-21.2L512.09-21.2Q509.19-21.2 507.54-18.4 505.89-15.6 505.89-10.6L505.89-10.6ZM534.74 0.15L540.99-18.15Q541.39-19.4 542.39-19.98 543.39-20.55 545.69-20.8L545.69-20.8 545.69-21.2 536.74-21.2 536.74-20.8Q538.74-20.5 539.49-20.13 540.24-19.75 540.24-18.95L540.24-18.95Q540.24-18.4 539.94-17.4L539.94-17.4 535.44-3.9 535.24-3.9 530.04-18.65Q529.69-19.65 529.69-19.95L529.69-19.95Q529.69-20.35 530.21-20.53 530.74-20.7 532.54-20.8L532.54-20.8 532.54-21.2 522.89-21.2 522.89-20.8Q524.59-20.7 525.26-20.28 525.94-19.85 526.39-18.7L526.39-18.7 533.74 0.15 534.74 0.15ZM550.53 0.35Q548.63 0.35 547.41-0.98 546.18-2.3 546.18-4.4L546.18-4.4Q546.18-6.9 548.46-8.4 550.74-9.9 556.18-11L556.18-11 556.18-15.55Q556.18-18.45 555.53-19.58 554.88-20.7 553.28-20.7L553.28-20.7Q551.74-20.7 550.78-19.88 549.83-19.05 549.83-17.65L549.83-17.65 549.88-16.3Q549.88-15.05 549.41-14.33 548.93-13.6 548.08-13.6L548.08-13.6Q547.33-13.6 546.86-14.1 546.38-14.6 546.38-15.4L546.38-15.4Q546.38-16.6 547.56-18.03 548.74-19.45 550.58-20.4L550.58-20.4Q552.83-21.65 555.24-21.65L555.24-21.65Q556.63-21.65 557.61-21.1 558.58-20.55 559.03-19.55L559.03-19.55Q559.28-18.9 559.36-17.95 559.43-17 559.43-14.3L559.43-14.3 559.43-4.75Q559.43-2.95 559.78-2.27 560.13-1.6 561.03-1.6L561.03-1.6Q562.38-1.6 563.03-2.55L563.03-2.55 563.24-2.45Q562.63-1.2 561.63-0.53 560.63 0.15 559.49 0.15L559.49 0.15Q558.18 0.15 557.33-0.63 556.49-1.4 556.38-2.7L556.38-2.7 556.24-2.75Q555.08-1.3 553.58-0.48 552.08 0.35 550.53 0.35L550.53 0.35ZM552.68-1.55Q553.74-1.55 554.66-2.02 555.58-2.5 556.18-3.4L556.18-3.4 556.18-10.45Q553.58-9.8 552.16-9.15 550.74-8.5 550.13-7.6 549.53-6.7 549.53-5.35L549.53-5.35Q549.53-3.6 550.38-2.58 551.24-1.55 552.68-1.55L552.68-1.55ZM570.28-26L564.78-20.7 564.88-20.45 567.23-20.45 567.23-4.45Q567.23-2.9 567.58-1.95 567.93-1 568.78-0.4L568.78-0.4Q570.03 0.5 571.63 0.5L571.63 0.5Q573.18 0.5 574.56-0.4 575.93-1.3 576.68-2.85L576.68-2.85 576.48-3Q575.58-2.1 574.83-1.7 574.08-1.3 573.28-1.3L573.28-1.3Q571.63-1.3 571.03-2.5L571.03-2.5Q570.48-3.35 570.48-5.1L570.48-5.1 570.48-20.4 575.88-20.4 576.18-21.2 570.48-21.2 570.48-25.95 570.28-26ZM580.23-28.9Q580.23-29.95 580.9-30.63 581.58-31.3 582.63-31.3L582.63-31.3Q583.68-31.3 584.35-30.63 585.03-29.95 585.03-28.9L585.03-28.9Q585.03-27.85 584.35-27.18 583.68-26.5 582.63-26.5L582.63-26.5Q581.58-26.5 580.9-27.18 580.23-27.85 580.23-28.9L580.23-28.9ZM584.53-0.8L584.53-21.7 584.13-21.7 578.33-19.75 578.33-19.4 581.28-18.3 581.28-0.8 578.23-0.4 578.23 0 587.58 0 587.58-0.4 584.53-0.8ZM607.73-0.8L610.73-0.4 610.73 0 601.43 0 601.43-0.4 604.48-0.8 604.48-13.55Q604.48-15.5 604.38-16.45 604.28-17.4 603.98-18.05L603.98-18.05Q603.58-18.9 602.65-19.38 601.73-19.85 600.53-19.85L600.53-19.85Q597.98-19.85 595.98-17.7L595.98-17.7 595.98-0.8 599.03-0.4 599.03 0 589.68 0 589.68-0.4 592.73-0.8 592.73-18.05 589.78-19.15 589.78-19.5 595.43-21.45 595.83-21.45 595.83-18.3Q599.03-21.7 602.53-21.7L602.53-21.7Q604.08-21.7 605.35-21.03 606.63-20.35 607.18-19.25L607.18-19.25Q607.53-18.6 607.63-17.48 607.73-16.35 607.73-13.55L607.73-13.55 607.73-0.8ZM628.42-22.05Q627.42-22.05 626.97-20L626.97-20Q628.27-19 628.97-17.57 629.67-16.15 629.67-14.4L629.67-14.4Q629.67-11.7 628.05-9.78 626.42-7.85 623.72-7.3L623.72-7.3Q623.12-7.15 622.52-7.15L622.52-7.15Q619.92-6.7 618.5-5.9 617.07-5.1 617.07-4.1L617.07-4.1Q617.07-3.4 617.52-2.93 617.97-2.45 619.22-2.02 620.47-1.6 622.97-1.15L622.97-1.15Q627.22-0.35 629.02 1.1 630.82 2.55 630.82 5.2L630.82 5.2Q630.82 7.2 629.52 8.83 628.22 10.45 625.92 11.38 623.62 12.3 620.77 12.3L620.77 12.3Q616.62 12.3 614.35 10.83 612.07 9.35 612.07 6.7L612.07 6.7Q612.07 4.85 613.55 3.28 615.02 1.7 617.52 0.9L617.52 0.9Q615.77 0.2 615-0.68 614.22-1.55 614.22-2.75L614.22-2.75Q614.22-4.15 615.9-5.3 617.57-6.45 620.72-7.15L620.72-7.15Q617.62-7.45 615.7-9.45 613.77-11.45 613.77-14.45L613.77-14.45Q613.77-17.65 616-19.68 618.22-21.7 621.72-21.7L621.72-21.7Q624.52-21.7 626.57-20.35L626.57-20.35Q627.82-24.65 630.42-24.65L630.42-24.65Q631.37-24.65 631.92-24.13 632.47-23.6 632.47-22.75L632.47-22.75Q632.47-22.05 631.97-21.55 631.47-21.05 630.77-21.05L630.77-21.05Q630.17-21.05 629.52-21.6L629.52-21.6Q629.42-21.65 629.1-21.85 628.77-22.05 628.42-22.05L628.42-22.05ZM621.72-7.6Q623.62-7.6 624.8-9.5 625.97-11.4 625.97-14.4L625.97-14.4Q625.97-17.4 624.8-19.3 623.62-21.2 621.72-21.2L621.72-21.2Q619.82-21.2 618.65-19.3 617.47-17.4 617.47-14.4L617.47-14.4Q617.47-11.4 618.65-9.5 619.82-7.6 621.72-7.6L621.72-7.6ZM627.92 6.7Q627.92 4.8 626.57 3.78 625.22 2.75 621.47 2L621.47 2Q619.37 1.65 618.02 1.1L618.02 1.1Q614.47 2.35 614.47 6.25L614.47 6.25Q614.47 8.9 616.2 10.35 617.92 11.8 621.07 11.8L621.07 11.8Q624.22 11.8 626.07 10.43 627.92 9.05 627.92 6.7L627.92 6.7ZM658.12-33.95L658.12-0.8 652.72-0.4 652.72 0 667.37 0 667.37-0.4 661.97-0.8 661.97-33.95 669.27-33.95Q670.47-33.95 670.99-33.58 671.52-33.2 671.97-32.05L671.97-32.05 675.07-24.35 675.47-24.45 674.37-35.3 674.07-35.3Q672.97-34.8 672.19-34.65 671.42-34.5 670.22-34.5L670.22-34.5 650.97-34.5Q649.77-34.5 648.99-34.65 648.22-34.8 647.12-35.3L647.12-35.3 646.82-35.3 644.87-24.45 645.27-24.35 648.72-32.05Q649.22-33.2 649.77-33.58 650.32-33.95 651.52-33.95L651.52-33.95 658.12-33.95ZM682.27-21.7Q685.17-21.7 687.42-20.3 689.67-18.9 690.92-16.38 692.17-13.85 692.17-10.6L692.17-10.6Q692.17-7.35 690.92-4.83 689.67-2.3 687.42-0.9 685.17 0.5 682.27 0.5L682.27 0.5Q679.37 0.5 677.12-0.9 674.87-2.3 673.62-4.83 672.37-7.35 672.37-10.6L672.37-10.6Q672.37-13.85 673.62-16.38 674.87-18.9 677.12-20.3 679.37-21.7 682.27-21.7L682.27-21.7ZM676.07-10.6Q676.07-5.6 677.72-2.8 679.37 0 682.27 0L682.27 0Q685.17 0 686.82-2.8 688.47-5.6 688.47-10.6L688.47-10.6Q688.47-15.6 686.82-18.4 685.17-21.2 682.27-21.2L682.27-21.2Q679.37-21.2 677.72-18.4 676.07-15.6 676.07-10.6L676.07-10.6ZM723.01-0.8L726.11-0.4 726.11 0 716.71 0 716.71-0.4 719.76-0.8 719.76-13.55Q719.76-15.5 719.66-16.45 719.56-17.4 719.31-18.05L719.31-18.05Q718.56-19.85 716.31-19.85L716.31-19.85Q713.91-19.85 712.26-17.65L712.26-17.65Q712.36-15.95 712.36-13.55L712.36-13.55 712.36-0.8 715.46-0.4 715.46 0 706.01 0 706.01-0.4 709.11-0.8 709.11-13.55Q709.11-15.5 709.01-16.45 708.91-17.4 708.66-18.05L708.66-18.05Q707.91-19.85 705.66-19.85L705.66-19.85Q703.31-19.85 701.71-17.8L701.71-17.8 701.71-0.8 704.76-0.4 704.76 0 695.46 0 695.46-0.4 698.46-0.8 698.46-18.3 695.51-19.4 695.51-19.75 701.16-21.7 701.56-21.7 701.56-18.35Q704.51-21.7 707.71-21.7L707.71-21.7Q710.61-21.7 711.81-19.25L711.81-19.25Q712.01-18.85 712.16-18.25L712.16-18.25Q715.21-21.7 718.36-21.7L718.36-21.7Q721.26-21.7 722.46-19.25L722.46-19.25Q722.81-18.6 722.91-17.43 723.01-16.25 723.01-13.55L723.01-13.55 723.01-0.8ZM755.61-0.8L758.71-0.4 758.71 0 749.31 0 749.31-0.4 752.36-0.8 752.36-13.55Q752.36-15.5 752.26-16.45 752.16-17.4 751.91-18.05L751.91-18.05Q751.16-19.85 748.91-19.85L748.91-19.85Q746.51-19.85 744.86-17.65L744.86-17.65Q744.96-15.95 744.96-13.55L744.96-13.55 744.96-0.8 748.06-0.4 748.06 0 738.61 0 738.61-0.4 741.71-0.8 741.71-13.55Q741.71-15.5 741.61-16.45 741.51-17.4 741.26-18.05L741.26-18.05Q740.51-19.85 738.26-19.85L738.26-19.85Q735.91-19.85 734.31-17.8L734.31-17.8 734.31-0.8 737.36-0.4 737.36 0 728.06 0 728.06-0.4 731.06-0.8 731.06-18.3 728.11-19.4 728.11-19.75 733.76-21.7 734.16-21.7 734.16-18.35Q737.11-21.7 740.31-21.7L740.31-21.7Q743.21-21.7 744.41-19.25L744.41-19.25Q744.61-18.85 744.76-18.25L744.76-18.25Q747.81-21.7 750.96-21.7L750.96-21.7Q753.86-21.7 755.06-19.25L755.06-19.25Q755.41-18.6 755.51-17.43 755.61-16.25 755.61-13.55L755.61-13.55 755.61-0.8ZM771.26-21.7Q774.16-21.7 776.41-20.3 778.66-18.9 779.91-16.38 781.16-13.85 781.16-10.6L781.16-10.6Q781.16-7.35 779.91-4.83 778.66-2.3 776.41-0.9 774.16 0.5 771.26 0.5L771.26 0.5Q768.36 0.5 766.11-0.9 763.86-2.3 762.61-4.83 761.36-7.35 761.36-10.6L761.36-10.6Q761.36-13.85 762.61-16.38 763.86-18.9 766.11-20.3 768.36-21.7 771.26-21.7L771.26-21.7ZM765.06-10.6Q765.06-5.6 766.71-2.8 768.36 0 771.26 0L771.26 0Q774.16 0 775.81-2.8 777.46-5.6 777.46-10.6L777.46-10.6Q777.46-15.6 775.81-18.4 774.16-21.2 771.26-21.2L771.26-21.2Q768.36-21.2 766.71-18.4 765.06-15.6 765.06-10.6L765.06-10.6ZM795.81-21.7Q796.81-21.7 797.51-21.03 798.21-20.35 798.21-19.4L798.21-19.4Q798.21-18.6 797.66-18.05 797.11-17.5 796.31-17.5L796.31-17.5Q795.81-17.5 795.48-17.73 795.16-17.95 794.81-18.4L794.81-18.4Q794.46-18.8 794.18-19 793.91-19.2 793.51-19.2L793.51-19.2Q792.71-19.2 791.88-18.25 791.06-17.3 790.71-16.05L790.71-16.05 790.71-0.8 794.71-0.4 794.71 0 784.41 0 784.41-0.4 787.46-0.8 787.46-18.3 784.51-19.4 784.51-19.75 790.16-21.7 790.56-21.7 790.56-17.3Q793.36-21.7 795.81-21.7L795.81-21.7ZM810.2-21.7Q813.1-21.7 815.35-20.3 817.6-18.9 818.85-16.38 820.1-13.85 820.1-10.6L820.1-10.6Q820.1-7.35 818.85-4.83 817.6-2.3 815.35-0.9 813.1 0.5 810.2 0.5L810.2 0.5Q807.3 0.5 805.05-0.9 802.8-2.3 801.55-4.83 800.3-7.35 800.3-10.6L800.3-10.6Q800.3-13.85 801.55-16.38 802.8-18.9 805.05-20.3 807.3-21.7 810.2-21.7L810.2-21.7ZM804-10.6Q804-5.6 805.65-2.8 807.3 0 810.2 0L810.2 0Q813.1 0 814.75-2.8 816.4-5.6 816.4-10.6L816.4-10.6Q816.4-15.6 814.75-18.4 813.1-21.2 810.2-21.2L810.2-21.2Q807.3-21.2 805.65-18.4 804-15.6 804-10.6L804-10.6ZM844.55-21.2L852.6-21.2 852.6-20.8Q850.4-20.45 849.5-19.78 848.6-19.1 848.05-17.35L848.05-17.35 842.35 0.15 841.8 0.15 836.6-15.1 831.6 0.15 831.05 0.15 824.3-19.1Q824.1-19.75 823.85-20.05 823.6-20.35 823.08-20.5 822.55-20.65 821.3-20.8L821.3-20.8 821.3-21.2 830.25-21.2 830.25-20.8Q828.75-20.7 828.28-20.48 827.8-20.25 827.8-19.8L827.8-19.8Q827.8-19.45 828.1-18.6L828.1-18.6 832.45-5.3 832.65-5.3 836.2-16.2 835.3-18.85Q834.95-19.8 834.43-20.23 833.9-20.65 832.55-20.8L832.55-20.8 832.55-21.2 841-21.2 841-20.8Q839.5-20.7 839.03-20.48 838.55-20.25 838.55-19.8L838.55-19.8Q838.55-19.45 838.85-18.6L838.85-18.6 843.25-5.3 843.45-5.3 847.3-17.4Q847.6-18.4 847.6-18.95L847.6-18.95Q847.6-19.75 846.95-20.13 846.3-20.5 844.55-20.8L844.55-20.8 844.55-21.2Z" opacity="1" transform="matrix(1,0,0,1,0,0)" fill="#ff585f" class="slogan-text-1" data-fill-palette-color="secondary" id="text-1"></path></svg></g></svg></g></svg></g></svg></g><g><svg viewBox="0 0 72.96575078085407 72.96575078085408" height="72.96575078085408" width="72.96575078085407"><g><svg></svg></g><g id="icon-0"><svg viewBox="0 0 72.96575078085407 72.96575078085408" height="72.96575078085408" width="72.96575078085407"><g><path transform="scale(0.72966,0.72966)" d="M30 100c-16.569 0-30-13.431-30-30v-40c0-16.569 13.431-30 30-30h40c16.569 0 30 13.431 30 30v40c0 16.569-13.431 30-30 30z" fill="#ff585f" fill-rule="nonzero" stroke="none" stroke-width="1" stroke-linecap="butt" stroke-linejoin="miter" stroke-miterlimit="10" stroke-dasharray="" stroke-dashoffset="0" font-family="none" font-weight="none" font-size="none" text-anchor="none" style="mix-blend-mode: normal" data-fill-palette-color="accent"></path></g><g transform="matrix(1,0,0,1,14.593150156170811,18.877686858695753)"><svg viewBox="0 0 43.779450468512444 35.21037706346257" height="35.21037706346257" width="43.779450468512444"><g><svg xmlns="http://www.w3.org/2000/svg" xmlns:xlink="http://www.w3.org/1999/xlink" version="1.1" x="0" y="0" viewBox="0 9.786 100.00034525290005 80.42699999999999" enable-background="new 0 0 100 100" xml:space="preserve" id="dxe-0" width="43.779450468512444" height="35.21037706346257" class="icon-dxe-0" data-fill-palette-color="quaternary"><path d="M49.942 52.994L90.595 51.529C88.068 47.352 87.436 43.698 82.606 43.068 75.377 42.128 68.148 41.185 60.918 40.242L18.843 34.762C20.101 36.792 39.724 53.361 49.942 52.994" fill="#ffffff" data-fill-palette-color="quaternary"></path><path d="M0 9.786C4.391 17.043 26.615 32.858 32.953 33.672 50.283 35.903 67.61 38.132 84.939 40.36 81.546 34.753 80.759 31.01 74.627 29.401L47.91 22.378C31.94 18.182 15.97 13.984 0 9.786" fill="#ffffff" data-fill-palette-color="quaternary"></path><path d="M63.108 66.207L94.349 59.547C92.321 56.201 92.315 54.188 88.522 54.358 82.364 54.631 76.208 54.907 70.051 55.18 58.708 55.686 47.365 56.194 36.023 56.698 37.298 58.064 54.94 67.947 63.108 66.207" fill="#ffffff" data-fill-palette-color="quaternary"></path><path d="M87.682 90.213C93.407 86.494 94.944 82.492 98.201 76.406 101.852 69.582 99.458 68.562 95.38 61.81 94.963 61.122 89.538 62.042 88.927 62.714 88.182 63.532 88.679 68.169 88.633 69.21z" fill="#ffffff" data-fill-palette-color="quaternary"></path><path d="M86.35 63.447C82.555 64.256 77.746 63.638 76.778 67.676L72.658 84.887C81.904 82.678 86.028 71.582 86.35 63.447" fill="#ffffff" data-fill-palette-color="quaternary"></path><path d="M74.666 66.121C65.518 68.074 65.71 70.732 61.787 79.301 68.007 78.711 73.811 71.941 74.666 66.121" fill="#ffffff" data-fill-palette-color="quaternary"></path></svg></g></svg></g></svg></g></svg></g></svg></g><defs></defs></svg><rect width="395.52" height="60.34596032568248" fill="none" stroke="none" visibility="hidden"></rect></g></svg></g></svg>